<?xml version="1.0" encoding="UTF-8"?><svg id="c" xmlns="http://www.w3.org/2000/svg" viewBox="0 0 200 100"><path d="M45.78,56.32c.18-.4.3-.79.49-1.31.21-.58.37-1.16.49-1.74l1.74-7.83c.15-.79.24-1.4.27-1.74.06-.3.06-.64.06-.95v-.37h3.93l-2.38,10.87c-.18.76-.27,1.37-.34,1.77-.06.43-.09.85-.09,1.28h-4.17Z" style="fill:#fff; fill-rule:evenodd;"/><path d="M100.85,18c-2.68,0-4.84,2.16-4.84,4.81s.21,1.58.58,2.29c-.49.24-1.61.79-3.2,1.61-.82-1.8-2.99-2.59-4.78-1.74-1.8.82-2.59,2.95-1.77,4.75.06.12.12.27.21.4-.82.46-1.65.91-2.53,1.4-.79-1.34-2.53-1.8-3.87-1-1.34.79-1.8,2.5-1.04,3.84-.88.52-1.8,1.07-2.68,1.61-.88-.73-2.19-.64-2.92.24-.3.37-.49.85-.49,1.34s0,.37.06.52c-3.44,2.19-6.76,4.57-9.9,7.19-3.29-7.28-8.1-15.26-14.84-21.78h0c-.79-.79-1.43-.46-.55.52h0c5.7,6.12,10.21,14.96,13.25,23-11.6,9.84-24.37,28.88-10.36,34.85,2.04.88,2.99-.79,2.1-1.31-.15-.09-6.4-3.44-2.44-13.74h9.99c.55,0,.97-.43.97-.97s-.43-.97-.97-.97h-9.17c.58-1.25,1.25-2.47,1.98-3.65h7.19c.55,0,.95-.49.91-1,0-.49-.43-.88-.91-.91h-5.94c.73-1.1,1.58-2.25,2.5-3.47h3.41c.55,0,.95-.49.91-1,0-.49-.43-.88-.91-.91h-1.89c1.1-1.31,2.29-2.71,3.6-4.11h.03c2.62,7.52,3.9,13.98,3.62,16.15-.06.76-.52,1.46-1.22,1.8-.49.24-.7.91.06,1.13,2.44.73,3.96-1.7,4.23-3.65s-1.07-9.11-4.6-17.67c3.08-2.99,6.37-5.76,9.87-8.29.3.18.67.27,1.04.27,1.16,0,2.07-.91,2.07-2.07s0-.27-.03-.4c.91-.64,1.86-1.25,2.77-1.86.49.4,1.13.61,1.77.61,1.55,0,2.83-1.22,2.83-2.77s0-.49-.09-.73c.91-.58,1.8-1.1,2.65-1.58,1.34,1.46,3.62,1.52,5.09.18,1.04-.95,1.4-2.38.97-3.69,1.55-.85,2.68-1.46,3.23-1.77,1.52,2.19,4.54,2.77,6.73,1.28,2.22-1.49,2.77-4.51,1.28-6.7-.91-1.31-2.41-2.1-4.02-2.1h0v.09h.04Z" style="fill:#ec7e30; fill-rule:evenodd;"/><path d="M34.2,45.44c.06-.24.12-.46.12-.7s0-.21-.06-.3c-.12-.18-.43-.27-.85-.27h-6.37c-.34,0-.64.06-.91.27-.27.27-.43.64-.43,1l-.76,3.2h8.47l.76-3.2s.03,0,.03,0ZM35.18,56.32h-12.28c-1.22,0-2.07-.27-2.53-.85-.24-.4-.4-.85-.37-1.31,0-.52.09-1,.21-1.52l1.52-6.58c.34-1.34.82-2.29,1.46-2.83.67-.55,1.61-.85,2.89-.85h9.08c1.28,0,2.13.27,2.56.85.3.4.43.88.4,1.37,0,.49-.06,1-.21,1.49l-.97,4.36h-12.37l-.67,2.83c-.06.21-.09.46-.09.67s0,.27.06.34c.09.18.37.27.79.27h8.99c.79,0,1.58-.06,2.35-.24l-.85,2.01h.03,0Z" style="fill:#fff; fill-rule:evenodd;"/><path d="M38.13,56.32c.18-.43.34-.91.55-1.49.21-.64.4-1.31.55-1.98l3.14-14.65c.18-.91.3-1.58.37-1.98s.06-.88.06-1.49h4.39l-3.9,18.12c-.18.88-.3,1.55-.4,2.04-.06.49-.12.97-.09,1.46h-4.66v-.03h0Z" style="fill:#fff; fill-rule:evenodd;"/><path d="M89.31,44.74c-.46,0-.91-.06-1.43-.06h-2.04c-.34,0-.64.06-.91.24-.27.24-.46.55-.52.91l-1.7,7.43c-.24.88-.4,1.8-.43,2.71v.34h-4.45c.18-.46.37-.85.49-1.28s.27-.97.49-1.77l1.83-7.83c.21-.76.3-1.37.4-1.8.06-.43.06-.82.06-1.25h3.75l-.15,1.43c.21-.43.52-.79.95-1.07.49-.27,1.04-.4,1.61-.37h3.65l.88,1.52c-.18.15-.37.37-.52.55-.21.27-.37.4-.46.4-.55,0-1.04-.09-1.49-.12h0Z" style="fill:#fff; fill-rule:evenodd;"/><path d="M69.47,56.32c.18-.4.34-.79.52-1.31.21-.58.4-1.16.52-1.74l1.92-7.83c.15-.79.27-1.4.3-1.74.06-.3.06-.64.06-.95v-.37h4.33l-2.59,10.87c-.18.76-.3,1.37-.37,1.77-.09.43-.12.85-.09,1.28h-4.6Z" style="fill:#fff; fill-rule:evenodd;"/><path d="M53.45,37.49c0,1.16-.95,2.1-2.07,2.1s-2.1-.95-2.1-2.07.95-2.1,2.07-2.1h0c1.16,0,2.07.95,2.07,2.07,0,0,.03,0,.03,0Z" style="fill:#fff; fill-rule:evenodd;"/><path d="M114.61,44.94c.93,0,1.03-.1,1.21-.9l1.21-4.93c.24-1,.24-1.17.07-1.59h2.1c-.38.41-.48.59-.72,1.59l-1.1,4.55c-.48,2.03-1.24,2.76-3.14,2.76h-4.45c-1.72,0-2.21-.9-1.76-2.76l1.14-4.62c.21-.86.17-1.17.1-1.52h3.89c-.34.45-.55.97-.65,1.52l-1.24,5.07c-.14.59.03.83.62.83h2.73Z" style="fill:#fff; fill-rule:evenodd;"/><path d="M121.19,39.05h0l-1.41,5.76c-.24,1-.24,1.17-.07,1.59h-2.1c.38-.41.48-.59.72-1.59l1.38-5.72c.24-1,.24-1.17.07-1.59h4.65l1.76,7.24h.03l1.38-5.65c.24-1,.24-1.17.07-1.59h2.1c-.38.41-.48.59-.72,1.59l-1.76,7.31h-4.28l-1.79-7.34h-.03Z" style="fill:#fff; fill-rule:evenodd;"/><path d="M128.95,46.42c.34-.45.59-.97.69-1.52l1.52-5.86c.21-.86.21-1.17.1-1.52h4.14c-.34.45-.59.97-.69,1.52l-1.52,5.86c-.21.86-.21,1.17-.1,1.52h-4.14Z" style="fill:#fff; fill-rule:evenodd;"/><path d="M144.36,37.5l-.17,1.83c-.31-.28-.72-.41-1.14-.38h-1.52l-1.41,5.9c-.21.86-.17,1.17-.1,1.52h-3.83c.31-.45.55-.97.65-1.52l1.41-5.9h-1.52c-.45,0-.93.1-1.31.38l.72-1.83h8.2,0Z" style="fill:#fff; fill-rule:evenodd;"/><path d="M149.56,44.94c.52,0,1.07-.07,1.55-.24l-.72,1.72h-7.69c.34-.45.55-.97.65-1.52l1.41-5.86c.21-.86.17-1.17.1-1.52h7.55l-.14,1.72c-.45-.17-.97-.24-1.45-.24h-2.72l-.52,2.1h2.38c.52,0,1.07-.07,1.55-.24l-.48,1.96c-.45-.17-.97-.24-1.45-.24h-2.38l-.59,2.38h2.93v-.03h0Z" style="fill:#fff; fill-rule:evenodd;"/><path d="M155.7,44.94h1.79c.55,0,.69-.14.83-.72l1.14-4.52c.14-.59.1-.72-.45-.72h-1.79l-1.52,5.96h0ZM153.77,39.05c.21-.86.17-1.17.1-1.52h7c1.93,0,2.41.72,1.96,2.52l-.97,3.86c-.45,1.79-1.31,2.55-3.24,2.55h-7c.34-.45.59-.97.69-1.52l1.45-5.86h0v-.03h0Z" style="fill:#fff; fill-rule:evenodd;"/><path d="M116.54,58.35c.21.65.48,1.24.83,1.83h-4.03l-1-3.76-1,.9-.31,1.34c-.21.86-.17,1.17-.1,1.52h-3.79c.31-.45.55-.97.65-1.52l1.41-5.83c.17-.48.21-1.03.1-1.52h3.79c-.31.45-.55.97-.65,1.52l-.59,2.45,2.9-2.69c.48-.45.62-.65.69-.97,0-.1.03-.21.03-.34h3c-.48.21-.93.52-1.34.86l-2,1.76,1.45,4.45h-.04Z" style="fill:#fff; fill-rule:evenodd;"/><path d="M118.44,60.18c.31-.45.52-.97.62-1.52l1.34-5.86c.21-.86.17-1.17.1-1.52h3.62c-.31.45-.52.97-.62,1.52l-1.34,5.86c-.21.86-.17,1.17-.1,1.52h-3.62Z" style="fill:#fff; fill-rule:evenodd;"/><path d="M126.85,52.8h0l-1.41,5.76c-.24,1-.24,1.17-.07,1.59h-2.1c.38-.41.48-.59.72-1.59l1.38-5.69c.24-1,.24-1.17.07-1.59h4.65l1.76,7.27h.03l1.38-5.65c.24-1,.24-1.17.07-1.59h2.1c-.38.41-.48.59-.72,1.59l-1.76,7.31h-4.31l-1.79-7.38h0v-.03Z" style="fill:#fff; fill-rule:evenodd;"/><path d="M145.15,54.83c-.41.38-.65.86-.76,1.38l-.55,2.21c-.28,1.1-.28,1.28-.07,1.76h-3l.1-.83h0c-.28.52-.48.83-1.45.83h-3c-1.45,0-2.07-.69-1.62-2.62l.93-3.69c.48-1.93,1.45-2.62,2.9-2.62h6.51l-.17,1.72c-.41-.17-.86-.24-1.31-.24h-3.62c-.45,0-.69.14-.79.59l-1.21,4.83c-.1.41.07.59.52.59h1.14c.45,0,.69-.14.83-.59l.45-1.83h-1.28c-.21,0-.41.07-.62.17l.41-1.65h5.65,0Z" style="fill:#fff; fill-rule:evenodd;"/><path d="M148.43,58.73h1.79c.55,0,.69-.14.83-.72l1.14-4.52c.14-.59.1-.72-.45-.72h-1.79l-1.52,5.96h0ZM146.46,52.8c.21-.86.17-1.17.1-1.52h7c1.93,0,2.41.72,1.96,2.55l-.97,3.83c-.45,1.83-1.31,2.55-3.24,2.55h-7c.34-.45.59-.97.69-1.52l1.45-5.86h0v-.03h0Z" style="fill:#fff; fill-rule:evenodd;"/><path d="M159.01,58.14c-.1.41.07.59.52.59h1.45c.41,0,.69-.14.79-.59l1.17-4.83c.1-.41-.07-.59-.52-.59h-1.45c-.45,0-.69.14-.79.59l-1.17,4.83ZM156.73,53.9c.45-1.93,1.41-2.62,2.83-2.62h4.96c1.41,0,2.03.69,1.55,2.62l-.9,3.69c-.45,1.93-1.41,2.62-2.83,2.62h-4.96c-1.41,0-2.03-.69-1.55-2.62l.9-3.69h0Z" style="fill:#fff; fill-rule:evenodd;"/><path d="M175.55,51.28h4.45c-.34.45-.55.97-.65,1.52l-1.41,5.83c-.21.86-.17,1.17-.07,1.52h-3.86c.31-.45.55-.97.65-1.52l1.31-5.48h0l-4.1,7h-2.27l-.62-7h0l-1.31,5.41c-.24,1-.24,1.17-.07,1.59h-2.07c.38-.41.48-.59.72-1.59l1.38-5.69c.24-1,.24-1.17.07-1.59h4.58l.41,5.03h0l2.96-5.03h-.1,0Z" style="fill:#fff; fill-rule:evenodd;"/></svg>