<?xml version="1.0" encoding="UTF-8"?><svg id="a" xmlns="http://www.w3.org/2000/svg" viewBox="0 0 800 800"><polygon points="320.42 153.83 320.42 46.8 641.56 232.24 641.56 338.89 320.42 153.83" style="fill:#bfbfbf;"/><polygon points="722.61 292.44 641.56 338.89 641.56 232.24 722.61 185.44 722.61 292.44 722.61 292.44" style="fill:#dfdfdf;"/><polygon points="722.61 185.41 641.56 232.21 320.42 46.8 401.47 0 722.61 185.41 722.61 185.41" style="fill:#fff;"/><polygon points="239.45 307.27 239.45 200.24 560.59 385.68 560.59 492.33 239.45 307.27" style="fill:#bfbfbf;"/><polygon points="641.64 445.89 560.59 492.33 560.59 385.68 641.64 338.89 641.64 445.89 641.64 445.89" style="fill:#dfdfdf;"/><polygon points="641.64 338.85 560.59 385.65 239.45 200.24 320.5 153.44 641.64 338.85 641.64 338.85" style="fill:#fff;"/><polygon points="158.4 461.1 158.4 354.07 479.54 539.51 479.54 646.16 158.4 461.1" style="fill:#bfbfbf;"/><polygon points="560.6 599.72 479.54 646.16 479.54 539.51 560.6 492.72 560.6 599.72 560.6 599.72" style="fill:#dfdfdf;"/><polygon points="560.6 492.68 479.54 539.48 158.4 354.07 239.46 307.27 560.6 492.68 560.6 492.68" style="fill:#fff;"/><polygon points="77.39 614.94 77.39 507.91 398.53 693.35 398.53 800 77.39 614.94" style="fill:#bfbfbf;"/><polygon points="479.58 753.56 398.53 800 398.53 693.35 479.58 646.56 479.58 753.56 479.58 753.56" style="fill:#dfdfdf;"/><polygon points="479.58 646.52 398.53 693.32 77.39 507.91 158.44 461.11 479.58 646.52 479.58 646.52" style="fill:#fff;"/></svg>