<?xml version="1.0" encoding="UTF-8"?><svg id="c" xmlns="http://www.w3.org/2000/svg" viewBox="0 0 200 100"><g id="d"><g id="e" style="isolation:isolate;"><g style="isolation:isolate;"><path d="M55.57,42.58h5.99c1.35,0,2.38.1,3.09.31.95.28,1.77.78,2.45,1.5s1.2,1.59,1.55,2.63c.36,1.04.53,2.32.53,3.84,0,1.34-.17,2.49-.5,3.46-.41,1.18-.99,2.14-1.74,2.87-.57.55-1.34.99-2.3,1.3-.72.23-1.69.34-2.9.34h-6.17v-16.24ZM58.85,45.33v10.76h2.45c.92,0,1.58-.05,1.98-.16.53-.13.97-.36,1.32-.68s.64-.84.86-1.57.33-1.72.33-2.97-.11-2.22-.33-2.89-.53-1.2-.93-1.57c-.4-.38-.9-.63-1.52-.76-.46-.1-1.36-.15-2.69-.15h-1.47Z" style="fill:#bfbfbf;"/><path d="M71.94,45.46v-2.88h3.11v2.88h-3.11ZM71.94,58.82v-11.77h3.11v11.77h-3.11Z" style="fill:#bfbfbf;"/><path d="M77.15,55.46l3.12-.48c.13.61.4,1.07.81,1.38s.97.47,1.71.47c.8,0,1.41-.15,1.82-.44.27-.21.41-.48.41-.83,0-.24-.07-.43-.22-.59-.16-.15-.5-.28-1.04-.41-2.51-.55-4.1-1.06-4.78-1.52-.93-.64-1.4-1.52-1.4-2.65,0-1.02.4-1.88,1.21-2.57.8-.69,2.05-1.04,3.74-1.04s2.81.26,3.59.79,1.32,1.3,1.62,2.33l-2.94.54c-.13-.46-.36-.81-.71-1.05s-.85-.37-1.5-.37c-.82,0-1.41.11-1.76.34-.24.16-.35.37-.35.63,0,.22.1.41.31.56.28.21,1.25.5,2.91.88,1.66.38,2.82.84,3.47,1.39.65.55.98,1.33.98,2.32,0,1.08-.45,2.01-1.35,2.78-.9.78-2.23,1.16-4,1.16-1.6,0-2.87-.33-3.81-.98s-1.54-1.53-1.83-2.65Z" style="fill:#bfbfbf;"/><path d="M101.28,52.85l3.18,1.01c-.49,1.77-1.3,3.09-2.43,3.95s-2.57,1.29-4.32,1.29c-2.16,0-3.93-.74-5.32-2.21-1.39-1.47-2.08-3.49-2.08-6.04,0-2.7.7-4.8,2.09-6.3,1.4-1.5,3.23-2.24,5.51-2.24,1.99,0,3.6.59,4.84,1.76.74.69,1.29,1.69,1.66,2.99l-3.25.78c-.19-.84-.59-1.51-1.2-1.99-.61-.49-1.35-.73-2.22-.73-1.2,0-2.18.43-2.93,1.3-.75.86-1.12,2.26-1.12,4.2,0,2.05.37,3.52,1.11,4.39.74.87,1.7,1.31,2.88,1.31.87,0,1.62-.28,2.25-.83.63-.55,1.08-1.43,1.35-2.61Z" style="fill:#bfbfbf;"/><path d="M106.53,52.77c0-1.03.25-2.03.76-3,.51-.97,1.23-1.71,2.17-2.22.93-.51,1.98-.76,3.13-.76,1.78,0,3.24.58,4.38,1.73,1.14,1.16,1.71,2.62,1.71,4.38s-.57,3.26-1.72,4.43c-1.15,1.17-2.59,1.76-4.34,1.76-1.08,0-2.11-.24-3.09-.73s-1.72-1.2-2.23-2.14c-.51-.94-.76-2.09-.76-3.44ZM109.72,52.94c0,1.17.28,2.06.83,2.68.55.62,1.24.93,2.05.93s1.49-.31,2.04-.93c.55-.62.83-1.52.83-2.7s-.28-2.04-.83-2.66c-.55-.62-1.23-.93-2.04-.93s-1.5.31-2.05.93c-.55.62-.83,1.51-.83,2.68Z" style="fill:#bfbfbf;"/><path d="M128.86,58.82v-1.76c-.43.63-.99,1.12-1.69,1.48-.7.36-1.43.54-2.21.54s-1.5-.17-2.13-.52-1.08-.83-1.36-1.46c-.28-.63-.42-1.5-.42-2.6v-7.45h3.11v5.41c0,1.65.06,2.67.17,3.04.12.37.32.67.63.89s.69.33,1.15.33c.53,0,1.01-.15,1.43-.44.42-.29.71-.65.86-1.09s.23-1.49.23-3.17v-4.96h3.11v11.77h-2.89Z" style="fill:#bfbfbf;"/></g><g style="isolation:isolate;"><path d="M135.01,58.82v-16.24h6.9c1.74,0,3,.15,3.78.44.79.29,1.42.81,1.89,1.56s.71,1.6.71,2.56c0,1.22-.36,2.23-1.07,3.02-.72.79-1.79,1.29-3.21,1.5.71.41,1.29.87,1.76,1.36.46.5,1.08,1.37,1.87,2.64l1.98,3.17h-3.92l-2.37-3.53c-.84-1.26-1.42-2.06-1.73-2.39-.31-.33-.64-.55-.99-.68-.35-.12-.9-.18-1.65-.18h-.67v6.78h-3.28ZM138.29,49.45h2.43c1.57,0,2.56-.07,2.95-.2s.7-.36.92-.69c.22-.32.33-.73.33-1.22,0-.55-.15-.99-.44-1.32s-.7-.55-1.24-.64c-.27-.04-1.06-.06-2.39-.06h-2.56v4.12Z" style="fill:#fff;"/><path d="M150.55,53.54l3.19-.31c.19,1.07.58,1.86,1.17,2.36.59.5,1.38.75,2.38.75,1.06,0,1.85-.22,2.39-.67s.8-.97.8-1.57c0-.38-.11-.71-.34-.98-.23-.27-.62-.5-1.18-.7-.38-.13-1.26-.37-2.62-.71-1.76-.44-2.99-.97-3.7-1.61-1-.89-1.5-1.98-1.5-3.27,0-.83.23-1.6.7-2.32s1.14-1.27,2.03-1.65c.88-.38,1.95-.56,3.2-.56,2.04,0,3.57.45,4.6,1.34s1.57,2.09,1.62,3.58l-3.28.14c-.14-.83-.44-1.44-.9-1.8-.46-.37-1.15-.55-2.08-.55s-1.7.2-2.24.59c-.35.25-.52.59-.52,1.01,0,.38.16.71.49.99.41.35,1.42.71,3.01,1.09,1.6.38,2.78.77,3.54,1.17.76.4,1.36.95,1.79,1.65.43.7.65,1.56.65,2.59,0,.93-.26,1.8-.78,2.61-.52.81-1.25,1.42-2.19,1.81s-2.12.59-3.53.59c-2.05,0-3.63-.47-4.73-1.42-1.1-.95-1.76-2.33-1.97-4.15Z" style="fill:#fff;"/><path d="M166.52,58.82v-16.24h12.04v2.75h-8.76v3.6h8.15v2.74h-8.15v4.42h9.07v2.74h-12.35Z" style="fill:#fff;"/></g></g><g id="f"><circle id="g" cx="38.98" cy="49.74" r="8.33" style="fill:#bfbfbf;"/><circle id="h" cx="61.36" cy="27.36" r="6.69" style="fill:#bfbfbf;"/><circle id="i" cx="61.36" cy="73.18" r="6.69" style="fill:#bfbfbf;"/><rect id="j" x="48.76" y="48.97" width="3.48" height="25.47" transform="translate(-28.84 53.78) rotate(-45)" style="fill:#bfbfbf;"/><rect id="k" x="37.77" y="36.25" width="25.47" height="3.48" transform="translate(-12.07 46.84) rotate(-45)" style="fill:#bfbfbf;"/></g><g id="l"><path id="m" d="M61.48,8.9c-5.33,0-10.38,2.36-13.81,6.43,3.36-3.28,7.87-5.13,12.57-5.14,9.99,0,18.08,8.1,18.08,18.08h0c0,4.26-1.51,8.38-4.26,11.64,3.5-3.39,5.48-8.05,5.5-12.93,0-9.99-8.1-18.08-18.08-18.08h0Z" style="fill:#fff;"/><path id="n" d="M61.74,14.97c-3.77.01-7.31,1.84-9.5,4.91,2.18-2.15,5.12-3.37,8.19-3.38,6.47,0,11.71,5.24,11.71,11.71,0,2.44-.78,4.81-2.2,6.79,2.24-2.19,3.5-5.19,3.51-8.32,0-6.47-5.24-11.71-11.71-11.71h0Z" style="fill:#fff;"/></g><g id="o"><path id="p" d="M38.31,30.61c-10.23.48-18.29,8.9-18.31,19.14,0,10.61,8.6,19.21,19.21,19.21,1,0,1.99-.09,2.98-.24-.3.03-.6.05-.9.06-10.61,0-19.21-8.6-19.21-19.21,0-9.45,6.89-17.5,16.23-18.96h0Z" style="fill:#fff;"/><path id="q" d="M39.34,35.91c-7.66,0-13.86,6.21-13.86,13.86,0,7.66,6.21,13.86,13.86,13.86.3-.01.61-.03.91-.07-7.27-.48-12.93-6.51-12.95-13.8.02-7.38,5.81-13.45,13.17-13.82-.38-.03-.76-.05-1.13-.05h0Z" style="fill:#fff;"/></g><g id="r"><path id="s" d="M61.48,91.1c-5.33,0-10.38-2.36-13.81-6.43,3.36,3.28,7.87,5.13,12.57,5.14,9.99,0,18.08-8.1,18.08-18.08h0c0-4.26-1.51-8.38-4.26-11.64,3.5,3.39,5.48,8.05,5.5,12.93,0,9.99-8.1,18.08-18.08,18.08h0Z" style="fill:#fff;"/><path id="t" d="M61.74,85.03c-3.77-.01-7.31-1.84-9.5-4.91,2.18,2.15,5.12,3.37,8.19,3.38,6.47,0,11.71-5.24,11.71-11.71,0-2.44-.78-4.81-2.2-6.79,2.24,2.19,3.5,5.19,3.51,8.32,0,6.47-5.24,11.71-11.71,11.71h0Z" style="fill:#fff;"/></g></g></svg>