<?xml version="1.0" encoding="UTF-8"?><svg id="c" xmlns="http://www.w3.org/2000/svg" viewBox="0 0 200 100"><polygon points="140.64 53.89 140.64 48.07 136.39 53.89 140.64 53.89" style="fill:#fff;"/><path d="M122.11,52.37c-1.41.7-2.25,1.69-2.25,2.92,0,1.61,1.26,2.66,2.83,2.66s2.83-1,2.83-2.48c0-1.27-1.01-2.1-3.41-3.11Z" style="fill:#fff;"/><polygon points="54.55 36.7 59.98 36.7 57.27 30.24 54.55 36.7" style="fill:#fff;"/><path d="M125.19,48.82c0-1.36-1.16-2.23-2.6-2.23s-2.65.81-2.65,2c0,1.04.58,1.76,3.27,2.8,1.16-.66,1.98-1.49,1.98-2.57Z" style="fill:#fff;"/><path d="M161.53,29.11c-.45,0-.76,0-1.19.05v7.65c.57.07.93.05,1.48.05,2.66,0,4.41-1.02,4.41-3.9,0-2.23-1.01-3.85-4.69-3.85Z" style="fill:#fff;"/><path d="M20,16.74v48.82h160V16.74H20ZM125.39,34.05c0-1.64,1.59-3.06,3.78-3.06,1.39,0,2.97.49,3.71.83l.28,2.11h-.34c-.6-1.42-1.97-2.36-3.45-2.36s-2.4.67-2.4,1.77c0,2.8,6.85,3.44,6.85,7.07,0,1.93-1.83,3.55-4.34,3.55-1.19,0-2.7-.35-3.81-.66l-.44-2.93h.38c.46,1.94,2,2.96,3.67,2.96,1.44,0,2.96-.67,2.96-2.22,0-2.84-6.84-3.6-6.84-7.05ZM112.57,43.12c1.91-.05,2.04-.31,2.04-1.76v-10.38c0-1.45-.12-1.71-2.03-1.76v-.45h11.32s.19,2.96.19,2.96h-.44c-.31-1.96-.91-2.1-1.75-2.1h-5.32v5.8h4.16c.86,0,1.26-.11,1.38-1.49h.45v3.99h-.45c-.19-1.69-.64-1.59-1.62-1.59h-3.92v5.07c0,1.1.5,1.31,1.38,1.31h3.57c1.64,0,2.18-.35,2.75-2.36h.43l-.37,3.21h-11.77v-.45ZM81.13,29.23c-1.79,0-1.87.31-1.87,1.24v13.28h-.62l-11.06-12.9v10.21c0,1.71.08,2.07,2.11,2.07v.45h-9.69v-.45h.32c1.36,0,1.86-.14,1.86-.81,0-.38-.17-.74-.26-.97l-1.56-3.72h-6.2l-1.32,3.13c-.16.45-.48,1.17-.48,1.5,0,.64.62.88,1.93.88h.09v.45h-9.19v-.45c1.12,0,2.21-.31,2.12-1.57l-.69-10.66h-.05l-5.43,12.68h-.55l-5.59-12.68h-.05l-.64,10.71c-.07,1.21.83,1.47,1.91,1.52v.45h-4.95v-.45c1.74,0,1.95-.38,2.07-2.55l.63-10.11c0-.93-.28-1.24-2.07-1.24v-.45h4.17l5.26,12.02,5.23-12.02h4.01s0,.45,0,.45c-1.79,0-2.07.31-2.07,1.24l.73,10.47c.1,1.6.32,2.15.94,2.15.49,0,.66-.32,1.57-2.31l5.11-12h1.69l5.54,12.85c.35.75.64,1.45,1.28,1.45.8,0,1.14-.64,1.14-1.55v-11.71c-.55-.38-.99-.57-1.82-.59v-.45h3.56l9.94,11.69v-9.47c0-1.45-.13-1.72-2.04-1.76v-.45h4.98v.45ZM94.36,42.49c-1.42.68-2.56,1.46-5.37,1.46-4.83,0-7.72-3.19-7.72-7.59s2.98-7.95,7.95-7.95c2.5,0,4.33.84,5.44,1.31l.18,2.95h-.45c-.78-2.21-2.44-3.66-5.03-3.66-3.97,0-5.96,3.07-5.96,7.07,0,4.31,2.6,7.22,6.22,7.22,1.08,0,3.79-.72,5.41-3.6h.45l-1.14,2.79ZM99.63,36.34v5.02h0c0,1.45.13,1.71,2.04,1.76v.45h-5.89v-.45c1.78,0,1.87-.31,1.87-1.24h0v-11.42h0c0-.93-.08-1.24-1.87-1.24v-.45h5.89v.45c-1.9.05-2.04.31-2.04,1.76h0s0,4.44,0,4.44h8.74v-4.65c-.01-1.27-.22-1.51-2.03-1.55v-.45h5.89v.45c-1.78,0-1.87.31-1.87,1.24h0v11.42h0c0,.93.08,1.24,1.87,1.24v.45h-5.89v-.45c1.8-.04,2.02-.28,2.03-1.53v-5.25h-8.74ZM117.99,58.24h-5.24v-.45c1.79,0,1.87-.31,1.87-1.23h0v-8.81c-.64.53-1.75,1.23-2.49,1.55l-.16-.27c1.15-.74,2.8-2.16,3.28-2.8h.7v10.06c.02,1.22.25,1.45,2.04,1.49v.45ZM122.67,58.43c-2.23,0-4.01-1.38-4.01-3.1,0-1.33,1.03-2.41,3.04-3.14-1.94-.8-2.87-1.72-2.87-3.01,0-1.67,1.72-3.07,3.78-3.07s3.72,1.21,3.72,2.72c0,1.21-.91,2.14-2.73,2.8,2.17.89,3.14,1.85,3.14,3.31,0,1.97-1.78,3.48-4.07,3.48ZM135.02,57.07l-.16,1.17h0s0,0,0,0h-7.47v-.54c.49-.47,5.98-4.62,5.98-8,0-1.41-1.07-2.52-2.48-2.52-1.33,0-2.52,1.01-2.95,2.54h-.3c.22-2.14,1.76-3.61,3.8-3.61s3.42,1.43,3.42,3.33c0,2.86-3.62,5.56-5.98,7.63h4.47c.94-.02,1.27-.32,1.53-1.46h.36l-.2,1.46h0ZM143.52,54.84h-1.55v3.4h-1.33v-3.4h-5.22v-.44l6-8.17h.56v7.66h1.55v.95ZM142.71,31.99h-2.71v9.75c0,1.05.35,1.42,1.54,1.42h.45v.41h-5.67v-.41h.45c1.19,0,1.54-.37,1.54-1.42v-9.75h-2.71c-.78,0-1.13.21-1.42,1.94h-.35l.28-2.68h10.1l.29,2.68h-.35c-.29-1.72-.65-1.94-1.43-1.94ZM155.49,43.57h-11.77v-.45c1.9-.05,2.04-.31,2.04-1.76v-10.38c0-1.45-.12-1.71-2.03-1.76v-.45h11.32s.19,2.96.19,2.96h-.44c-.31-1.96-.91-2.1-1.75-2.1h-5.31v5.8h4.16c.86,0,1.26-.11,1.38-1.49h.45v3.99h-.45c-.19-1.69-.64-1.59-1.62-1.59h-3.92v5.07c0,1.1.5,1.31,1.39,1.31h3.56c1.64,0,2.17-.35,2.75-2.36h.43l-.37,3.21ZM174.1,43.57c-4.19.19-4.7-.68-6.88-2.76-.85-.8-2.27-2.41-4.09-3.45-.57.02-.95.04-1.58.04-.53,0-.84-.02-1.22-.05v3.96c0,1.44.57,1.8,1.92,1.8h.55v.45h-6.77v-.45h.41c1.41,0,1.92-.38,1.92-1.99v-9.99c0-1.49-.41-1.92-1.8-1.92h-.53v-.45c.57,0,2.04-.1,3.02-.14.98-.05,1.46-.07,3.02-.07,4.43,0,6.41,1.82,6.41,4.26,0,1.79-1.22,3.3-3.19,3.88.89.69,1.6,1.19,2.73,2.31l1.89,1.81c1.41,1.41,2.36,2.18,4.2,2.3v.45Z" style="fill:#fff;"/><path d="M26.32,71.93v7.98h-.99v-7.98h-2.64v-.84h6.28v.84h-2.65Z" style="fill:#fff;"/><path d="M34.33,79.91v-4.21c0-1.02-.27-1.61-1.22-1.61-1.16,0-1.99,1.15-1.99,2.69v3.12h-.98v-9.54h.98v3.17c0,.43-.03.97-.1,1.29h.03c.38-.94,1.19-1.55,2.31-1.55,1.49,0,1.95.94,1.95,2.09v4.53h-.98Z" style="fill:#fff;"/><path d="M42.17,76.47h-4.34c-.07,1.95.7,2.76,2.16,2.76.68,0,1.4-.17,1.88-.42l.09.84c-.6.25-1.33.39-2.14.39-1.96,0-3-1.06-3-3.33,0-1.95,1.04-3.4,2.85-3.4s2.53,1.24,2.53,2.68c0,.12,0,.29-.03.48ZM39.61,74.05c-.91,0-1.57.67-1.72,1.69h3.29c.03-1.01-.57-1.69-1.57-1.69Z" style="fill:#fff;"/><path d="M49.6,80.03c-2.73,0-3.25-1.53-3.25-3.04v-5.89h1.01v5.8c0,1.27.42,2.31,2.33,2.31,1.62,0,2.42-.68,2.42-2.56v-5.55h.98v5.47c0,2.26-1.19,3.46-3.47,3.46Z" style="fill:#fff;"/><path d="M59.18,79.91v-4.21c0-1.02-.27-1.61-1.22-1.61-1.16,0-1.99,1.15-1.99,2.69v3.12h-.98v-6.49h.97c0,.42-.04,1.04-.1,1.44h.03c.37-.93,1.19-1.57,2.33-1.57,1.49,0,1.95.94,1.95,2.09v4.53h-.98Z" style="fill:#fff;"/><path d="M62.51,72.25c-.38,0-.68-.29-.68-.67s.3-.67.68-.67.68.3.68.67-.31.67-.68.67ZM62.01,79.91v-6.49h.98v6.49h-.98Z" style="fill:#fff;"/><path d="M67.53,79.91h-1.02l-2.46-6.49h1.11l1.52,4.23c.13.4.25.77.37,1.15h.01c.1-.35.22-.75.35-1.1l1.55-4.28h1.07l-2.51,6.49Z" style="fill:#fff;"/><path d="M75.64,76.47h-4.34c-.07,1.95.71,2.76,2.16,2.76.68,0,1.4-.17,1.88-.42l.09.84c-.6.25-1.33.39-2.14.39-1.96,0-3.01-1.06-3.01-3.33,0-1.95,1.05-3.4,2.85-3.4s2.53,1.24,2.53,2.68c0,.12,0,.29-.03.48ZM73.08,74.05c-.91,0-1.57.67-1.72,1.69h3.29c.03-1.01-.57-1.69-1.57-1.69Z" style="fill:#fff;"/><path d="M80.33,74.27c-1.44-.23-2.12.86-2.12,3.04v2.6h-.98v-6.49h.97c0,.43-.05,1.07-.14,1.63h.01c.26-.94.94-1.91,2.3-1.75l-.04.97Z" style="fill:#fff;"/><path d="M82.57,80.03c-.48,0-.98-.05-1.37-.13l.03-.9c.42.12.94.21,1.45.21.94,0,1.59-.42,1.59-1.1,0-1.57-3.16-.59-3.16-2.9,0-1.08.89-1.91,2.53-1.91.4,0,.86.07,1.27.14l-.03.85c-.43-.14-.9-.22-1.35-.22-.95,0-1.42.39-1.42,1.03,0,1.55,3.17.67,3.17,2.87,0,1.15-1.02,2.05-2.72,2.05Z" style="fill:#fff;"/><path d="M87.97,71.58c0-.37-.31-.67-.68-.67s-.68.3-.68.67.3.67.68.67.68-.29.68-.67ZM87.77,79.91v-6.49h-.98v6.49h.98Z" style="fill:#fff;"/><path d="M91.82,80.02c-1.31,0-1.69-.57-1.69-1.92v-3.91h-1.41v-.77h1.41v-2.16l.98-.27v2.43h1.91v.77h-1.91v3.5c0,1.16.21,1.46.98,1.46.33,0,.67-.04.93-.12v.85c-.34.08-.8.13-1.2.13Z" style="fill:#fff;"/><path d="M96.58,80.59c-.76,2-1.33,2.67-2.76,2.67-.23,0-.56-.03-.82-.07l.1-.9c.26.09.52.13.81.13.78,0,1.18-.37,1.69-1.74l.3-.77-2.48-6.49h1.12l1.36,3.72c.21.59.35,1.06.5,1.54h.01c.12-.42.39-1.23.65-1.97l1.16-3.29h1.07l-2.72,7.17Z" style="fill:#fff;"/><path d="M105.16,80.03c-1.74,0-2.86-1.06-2.86-3.33,0-1.86,1.15-3.4,3.1-3.4,1.58,0,2.87.88,2.87,3.25,0,1.93-1.19,3.48-3.11,3.48ZM105.3,74.11c-1.02,0-1.99.77-1.99,2.51s.72,2.57,1.99,2.57c1.02,0,1.95-.78,1.95-2.57,0-1.57-.65-2.51-1.95-2.51Z" style="fill:#fff;"/><path d="M113.53,71.25c-.33-.1-.68-.14-1.02-.14-.99,0-1.44.57-1.44,1.83v.48h1.92v.77h-1.92v5.72h-.98v-5.72h-1.41v-.77h1.41v-.46c0-1.82.9-2.65,2.46-2.65.37,0,.72.04,1.07.12l-.09.82Z" style="fill:#fff;"/><path d="M125.34,79.91l-.78-5.43c-.16-1.07-.22-1.72-.27-2.21h-.03c-.09.37-.22.88-.43,1.48l-2.06,6.17h-1.14l-1.96-5.77c-.22-.64-.46-1.33-.56-1.87h-.01c-.04.71-.13,1.41-.23,2.31l-.64,5.33h-1.03l1.25-8.82h1.27l2.01,5.96c.22.64.41,1.23.5,1.71h.03c.13-.6.26-.99.48-1.62l2.06-6.05h1.31l1.31,8.82h-1.06Z" style="fill:#fff;"/><path d="M131.51,79.91c0-.5,0-.99.07-1.37h-.03c-.31.82-1.15,1.49-2.26,1.49-1.03,0-1.78-.55-1.78-1.58,0-1.36,1.41-2.3,3.95-2.3v-.54c0-.98-.35-1.53-1.48-1.53-.63,0-1.41.2-1.99.56l-.09-.86c.61-.27,1.37-.48,2.25-.48,1.79,0,2.3.89,2.3,2.12v2.55c0,.64,0,1.37.03,1.95h-.97ZM131.46,76.87c-2.44,0-2.97.77-2.97,1.4,0,.59.42.97,1.06.97,1.15,0,1.91-1.14,1.91-2.26v-.1Z" style="fill:#fff;"/><path d="M138.5,79.91v-4.21c0-1.02-.27-1.61-1.22-1.61-1.16,0-1.99,1.15-1.99,2.69v3.12h-.98v-6.49h.97c0,.42-.04,1.04-.1,1.44h.03c.37-.93,1.19-1.57,2.33-1.57,1.49,0,1.95.94,1.95,2.09v4.53h-.98Z" style="fill:#fff;"/><path d="M143.79,79.99c-1.45,0-2.81-.64-2.81-3.1,0-2.13,1.07-3.57,3.19-3.57.54,0,1.07.08,1.53.22l-.1.86c-.43-.17-.94-.29-1.49-.29-1.4,0-2.09,1.03-2.09,2.6,0,1.33.42,2.43,1.99,2.43.57,0,1.2-.14,1.63-.37l.09.85c-.43.17-1.14.35-1.93.35Z" style="fill:#fff;"/><path d="M151.26,79.91v-4.21c0-1.02-.27-1.61-1.22-1.61-1.16,0-1.99,1.15-1.99,2.69v3.12h-.98v-9.54h.98v3.17c0,.43-.03.97-.1,1.29h.03c.38-.94,1.19-1.55,2.31-1.55,1.49,0,1.95.94,1.95,2.09v4.53h-.98Z" style="fill:#fff;"/><path d="M159.1,76.47h-4.34c-.07,1.95.71,2.76,2.16,2.76.68,0,1.4-.17,1.88-.42l.09.84c-.6.25-1.33.39-2.14.39-1.96,0-3.01-1.06-3.01-3.33,0-1.95,1.05-3.4,2.85-3.4s2.53,1.24,2.53,2.68c0,.12,0,.29-.03.48ZM156.54,74.05c-.91,0-1.57.67-1.72,1.69h3.29c.03-1.01-.57-1.69-1.57-1.69Z" style="fill:#fff;"/><path d="M161.67,80.03c-.48,0-.98-.05-1.37-.13l.03-.9c.42.12.94.21,1.45.21.94,0,1.59-.42,1.59-1.1,0-1.57-3.16-.59-3.16-2.9,0-1.08.89-1.91,2.53-1.91.41,0,.86.07,1.27.14l-.03.85c-.43-.14-.9-.22-1.35-.22-.95,0-1.42.39-1.42,1.03,0,1.55,3.17.67,3.17,2.87,0,1.15-1.02,2.05-2.72,2.05Z" style="fill:#fff;"/><path d="M167.96,80.02c-1.31,0-1.69-.57-1.69-1.92v-3.91h-1.41v-.77h1.41v-2.16l.98-.27v2.43h1.91v.77h-1.91v3.5c0,1.16.21,1.46.98,1.46.33,0,.67-.04.93-.12v.85c-.34.08-.8.13-1.2.13Z" style="fill:#fff;"/><path d="M175.34,76.47h-4.34c-.06,1.95.71,2.76,2.16,2.76.68,0,1.4-.17,1.88-.42l.09.84c-.6.25-1.33.39-2.14.39-1.96,0-3.01-1.06-3.01-3.33,0-1.95,1.05-3.4,2.85-3.4s2.53,1.24,2.53,2.68c0,.12,0,.29-.03.48ZM172.78,74.05c-.91,0-1.57.67-1.72,1.69h3.29c.03-1.01-.57-1.69-1.57-1.69Z" style="fill:#fff;"/><path d="M179.96,74.27c-1.44-.23-2.12.86-2.12,3.04v2.6h-.98v-6.49h.97c0,.43-.05,1.07-.14,1.63h.01c.26-.94.94-1.91,2.3-1.75l-.04.97Z" style="fill:#fff;"/></svg>