<?xml version="1.0" encoding="UTF-8"?><svg id="c" xmlns="http://www.w3.org/2000/svg" xmlns:xlink="http://www.w3.org/1999/xlink" viewBox="0 0 200 100"><defs><mask id="d" x="99.26" y="20.82" width="45.74" height="66.5" maskUnits="userSpaceOnUse"><g id="e"><path d="M102.87,78.83c-2.44-4.12-3.04-9.67-.7-15.61,4.23-8.62,9.57-11.51,15.07-14.49,7.1-3.85,14.46-7.84,20.02-24.51,5.68,9.39,9.96,27.9,1.68,43.27-5.99,11.1-13.78,16.52-19.66,17.93-4.91,1.18-9.45.09-12.82-2.51l23.7-26.71-27.29,22.63Z" style="fill:#fff; fill-rule:evenodd;"/></g></mask><mask id="f" x="55" y="20.82" width="45.74" height="66.5" maskUnits="userSpaceOnUse"><g id="g"><path d="M97.13,78.83c2.44-4.12,3.04-9.67.7-15.61-4.23-8.62-9.57-11.51-15.07-14.49-7.1-3.85-14.46-7.84-20.02-24.51-5.68,9.39-9.96,27.9-1.68,43.27,5.99,11.1,13.78,16.52,19.66,17.93,4.91,1.18,9.45.09,12.82-2.51l-23.7-26.71,27.29,22.63Z" style="fill:#fff; fill-rule:evenodd;"/></g></mask></defs><path d="M102.87,78.83c-2.44-4.12-3.04-9.67-.7-15.61,4.23-8.62,9.57-11.51,15.07-14.49,7.1-3.85,14.46-7.84,20.02-24.51,5.68,9.39,9.96,27.9,1.68,43.27-5.99,11.1-13.78,16.52-19.66,17.93-4.91,1.18-9.45.09-12.82-2.51l23.7-26.71-27.29,22.63Z" style="fill:#fff; fill-rule:evenodd;"/><g style="mask:url(#d);"><path d="M102.17,63.22l-1.33-.53.02-.05.03-.05,1.29.63ZM102.87,78.83l.91,1.1-1.29,1.07-.86-1.44,1.23-.73ZM117.24,48.73l.68,1.26-.68-1.26ZM137.26,24.22l-1.36-.45.98-2.94,1.61,2.65-1.23.74ZM138.95,67.49l1.26.68h0s-1.26-.68-1.26-.68ZM119.28,85.42l.34,1.39-.34-1.39ZM106.47,82.91l-.88,1.13-1.21-.94,1.02-1.15,1.07.95ZM130.16,56.2l-.91-1.1,1.99,2.05-1.07-.95ZM103.51,63.74c-2.2,5.57-1.6,10.65.6,14.36l-2.47,1.46c-2.69-4.54-3.29-10.55-.8-16.87l2.67,1.05ZM117.92,49.99c-5.44,2.95-10.44,5.66-14.46,13.86l-2.57-1.26c4.44-9.04,10.12-12.11,15.67-15.12l1.37,2.52ZM138.62,24.67c-2.83,8.48-6.15,13.85-9.76,17.6-3.59,3.74-7.4,5.79-10.94,7.71l-1.37-2.52c3.56-1.93,6.99-3.8,10.24-7.18,3.24-3.37,6.38-8.34,9.1-16.52l2.72.91ZM137.68,66.81c7.97-14.79,3.86-32.75-1.65-41.85l2.45-1.48c5.86,9.68,10.31,28.74,1.72,44.69l-2.52-1.36ZM118.95,84.03c5.39-1.3,12.89-6.38,18.74-17.22l2.52,1.36c-6.13,11.37-14.22,17.11-20.59,18.65l-.67-2.79ZM107.34,81.77c3.01,2.33,7.11,3.34,11.61,2.25l.67,2.79c-5.32,1.28-10.31.1-14.03-2.77l1.75-2.27ZM105.39,81.96l23.7-26.71,2.14,1.9-23.7,26.71-2.14-1.9ZM131.08,57.3l-27.29,22.63-1.83-2.21,27.29-22.63,1.83,2.21Z" style="fill:rgba(255,255,255,.47);"/></g><path d="M97.13,78.83c2.44-4.12,3.04-9.67.7-15.61-4.23-8.62-9.57-11.51-15.07-14.49-7.1-3.85-14.46-7.84-20.02-24.51-5.68,9.39-9.96,27.9-1.68,43.27,5.99,11.1,13.78,16.52,19.66,17.93,4.91,1.18,9.45.09,12.82-2.51l-23.7-26.71,27.29,22.63Z" style="fill:#fff; fill-rule:evenodd;"/><g style="mask:url(#f);"><path d="M97.83,63.22l1.33-.53-.02-.05-.03-.05-1.29.63ZM97.13,78.83l-.91,1.1,1.29,1.07.86-1.44-1.23-.73ZM82.76,48.73l-.68,1.26.68-1.26ZM62.74,24.22l1.36-.45-.98-2.94-1.61,2.65,1.23.74ZM61.05,67.49l-1.26.68h0s1.26-.68,1.26-.68ZM80.72,85.42l-.34,1.39.34-1.39ZM93.53,82.91l.88,1.13,1.21-.94-1.02-1.15-1.07.95ZM69.84,56.2l.91-1.1-1.99,2.05,1.07-.95ZM96.49,63.74c2.2,5.57,1.6,10.65-.6,14.36l2.47,1.46c2.69-4.54,3.29-10.55.8-16.87l-2.67,1.05ZM82.08,49.99c5.44,2.95,10.44,5.66,14.46,13.86l2.57-1.26c-4.44-9.04-10.12-12.11-15.67-15.12l-1.37,2.52ZM61.38,24.67c2.83,8.48,6.15,13.85,9.76,17.6,3.59,3.74,7.4,5.79,10.94,7.71l1.37-2.52c-3.56-1.93-6.99-3.8-10.24-7.18-3.24-3.37-6.38-8.34-9.1-16.52l-2.72.91ZM62.32,66.81c-7.97-14.79-3.86-32.75,1.65-41.85l-2.45-1.48c-5.86,9.68-10.31,28.74-1.72,44.69l2.52-1.36ZM81.05,84.03c-5.39-1.3-12.89-6.38-18.74-17.22l-2.52,1.36c6.13,11.37,14.22,17.11,20.59,18.64l.67-2.79ZM92.66,81.77c-3.01,2.33-7.11,3.34-11.61,2.25l-.67,2.79c5.32,1.28,10.31.1,14.03-2.77l-1.75-2.27ZM94.61,81.96l-23.7-26.71-2.14,1.9,23.7,26.71,2.14-1.9ZM68.92,57.3l27.29,22.63,1.83-2.21-27.29-22.63-1.83,2.21Z" style="fill:rgba(255,255,255,.47);"/></g><path d="M82,34.9c-1.54,0-2.95-.3-4.21-.89-1.25-.59-2.33-1.39-3.24-2.4-.89-1.03-1.58-2.18-2.08-3.44-.49-1.29-.74-2.6-.74-3.95s.26-2.74.77-4.01c.53-1.29,1.26-2.42,2.17-3.41.93-1.01,2.02-1.8,3.26-2.37,1.27-.59,2.65-.89,4.16-.89s2.91.31,4.16.92c1.27.61,2.34,1.43,3.24,2.46.89,1.03,1.58,2.18,2.08,3.44.49,1.27.74,2.57.74,3.92s-.26,2.72-.77,4.01c-.51,1.27-1.24,2.4-2.17,3.41-.91.99-2,1.77-3.26,2.34-1.25.57-2.61.86-4.1.86ZM75.88,24.22c0,.91.14,1.79.42,2.64.28.85.67,1.61,1.19,2.29.53.65,1.18,1.18,1.93,1.57.77.38,1.64.56,2.61.56s1.87-.2,2.64-.59c.77-.42,1.41-.96,1.93-1.63.51-.69.9-1.45,1.16-2.29.28-.85.42-1.7.42-2.55,0-.91-.15-1.78-.45-2.61-.28-.85-.68-1.6-1.22-2.26-.51-.67-1.16-1.2-1.93-1.57-.75-.4-1.6-.59-2.55-.59-1.01,0-1.9.21-2.67.62-.75.4-1.38.93-1.9,1.6-.51.67-.91,1.42-1.19,2.26-.26.83-.39,1.68-.39,2.55ZM95.44,34.75V13.68h4.1v17.48h10.74v3.59h-14.84ZM125.33,19.2c-.14-.14-.4-.33-.77-.56-.36-.24-.8-.47-1.34-.68-.51-.22-1.08-.41-1.69-.56-.61-.18-1.24-.27-1.87-.27-1.11,0-1.95.21-2.52.62-.55.42-.83,1-.83,1.75,0,.57.18,1.03.53,1.37.36.34.89.62,1.6.86.71.24,1.6.49,2.67.77,1.39.34,2.58.75,3.59,1.25,1.03.47,1.81,1.11,2.34,1.9.55.77.83,1.8.83,3.09,0,1.13-.21,2.1-.62,2.91-.42.79-.99,1.43-1.72,1.93-.73.49-1.56.86-2.49,1.1-.93.22-1.92.33-2.97.33s-2.1-.11-3.15-.33c-1.05-.22-2.06-.52-3.03-.92-.97-.42-1.86-.91-2.67-1.48l1.81-3.53c.18.18.49.42.95.71.46.28,1.01.56,1.66.86.65.28,1.37.51,2.14.71.77.2,1.55.3,2.34.3,1.11,0,1.95-.19,2.52-.56.57-.38.86-.91.86-1.6,0-.63-.23-1.13-.68-1.48-.46-.36-1.09-.66-1.9-.92-.81-.28-1.77-.57-2.88-.89-1.33-.38-2.43-.79-3.32-1.25-.89-.48-1.55-1.07-1.99-1.78-.44-.71-.65-1.6-.65-2.67,0-1.44.34-2.65,1.01-3.62.69-.99,1.62-1.73,2.79-2.23,1.17-.51,2.46-.77,3.89-.77.99,0,1.92.11,2.79.33.89.22,1.72.5,2.49.86.77.36,1.46.74,2.08,1.16l-1.81,3.32Z" style="fill:#fff;"/><path d="M77.78,34.01l-.37.78h0s.36-.78.36-.78ZM74.55,31.61l-.65.56h0s0,.01,0,.01l.64-.58ZM72.47,28.17l-.8.31h0s.8-.31.8-.31ZM72.5,20.21l-.79-.33h0s0,0,0,0l.8.32ZM74.67,16.8l-.63-.58h0s.63.58.63.58ZM77.93,14.42l.36.78h0s0,0,0,0l-.36-.78ZM86.24,14.45l-.38.77h0s0,0,0,0l.37-.77ZM89.48,16.92l-.65.56h0l.65-.56ZM91.56,20.36l.8-.31-.8.31ZM91.53,28.28l.8.32h0s-.8-.32-.8-.32ZM89.36,31.7l-.63-.58h0s.63.58.63.58ZM86.09,34.04l-.35-.78h0s.36.78.36.78ZM76.3,26.86l-.82.27h0l.82-.27ZM77.49,29.14l-.68.52h0s0,.02,0,.02l.67-.54ZM79.42,30.72l-.4.76h.01s.01.01.01.01l.38-.77ZM84.67,30.69l.39.77h0s0,0,0,0l-.41-.76ZM86.6,29.06l.68.52h0s0,0,0,0l-.69-.51ZM87.76,26.77l-.82-.27h0s0,.01,0,.01l.82.25ZM87.73,21.61l-.82.27h0s0,.02,0,.02l.81-.29ZM86.51,19.35l-.68.52h0s0,.02,0,.02l.67-.54ZM84.58,17.78l-.4.76h.01s.01.01.01.01l.38-.77ZM79.36,17.81l.4.76h0s0,0,0,0l-.41-.76ZM77.46,19.41l-.68-.52h0l.68.52ZM76.27,21.67l-.82-.27h0s0,.02,0,.02l.82.25ZM82,34.04c-1.43,0-2.71-.27-3.85-.81l-.73,1.56c1.39.65,2.92.97,4.58.97v-1.72ZM78.15,33.24c-1.15-.55-2.13-1.28-2.97-2.2l-1.28,1.15c.99,1.09,2.16,1.96,3.5,2.6l.74-1.55ZM75.2,31.05c-.83-.95-1.47-2.02-1.93-3.19l-1.6.63c.53,1.36,1.27,2.59,2.23,3.69l1.3-1.13ZM73.27,27.86c-.46-1.19-.68-2.4-.68-3.64h-1.72c0,1.45.27,2.87.8,4.26l1.61-.62ZM72.59,24.22c0-1.3.24-2.52.71-3.68l-1.59-.65c-.56,1.37-.83,2.82-.83,4.33h1.72ZM73.3,20.54c.5-1.2,1.17-2.25,2.01-3.16l-1.27-1.16c-.98,1.07-1.76,2.29-2.33,3.67l1.59.66ZM75.3,17.38c.85-.93,1.85-1.65,2.99-2.18l-.72-1.56c-1.35.62-2.53,1.48-3.54,2.57l1.26,1.17ZM78.3,15.2c1.14-.54,2.4-.81,3.79-.81v-1.72c-1.62,0-3.13.32-4.52.97l.73,1.56ZM82.09,14.39c1.4,0,2.66.28,3.78.83l.76-1.54c-1.38-.68-2.89-1.01-4.53-1.01v1.72ZM85.87,15.23c1.17.56,2.15,1.31,2.96,2.25l1.3-1.13c-.97-1.12-2.14-2.01-3.51-2.67l-.75,1.55ZM88.83,17.48c.83.95,1.47,2.02,1.93,3.19l1.6-.63c-.53-1.36-1.27-2.59-2.23-3.69l-1.3,1.13ZM90.75,20.67c.46,1.17.68,2.37.68,3.6h1.72c0-1.45-.27-2.87-.8-4.23l-1.6.63ZM91.44,24.28c0,1.28-.24,2.5-.71,3.69l1.6.64c.55-1.39.83-2.83.83-4.33h-1.72ZM90.73,27.96c-.48,1.17-1.14,2.22-2,3.15l1.26,1.17c1-1.08,1.78-2.31,2.33-3.67l-1.59-.65ZM88.73,31.11c-.83.9-1.82,1.62-2.99,2.14l.71,1.57c1.37-.62,2.55-1.47,3.54-2.55l-1.27-1.16ZM85.73,33.26c-1.12.52-2.37.78-3.74.78v1.72c1.6,0,3.09-.31,4.46-.94l-.72-1.56ZM75.02,24.22c0,1,.15,1.97.46,2.91l1.64-.53c-.25-.76-.37-1.55-.37-2.38h-1.72ZM75.48,27.13c.31.94.75,1.79,1.32,2.54l1.37-1.04c-.45-.59-.8-1.27-1.05-2.03l-1.64.53ZM76.82,29.69c.61.74,1.34,1.34,2.19,1.79l.8-1.52c-.65-.34-1.2-.79-1.66-1.36l-1.33,1.09ZM79.04,31.49c.9.44,1.91.65,2.99.65v-1.72c-.86,0-1.6-.17-2.24-.48l-.75,1.55ZM82.03,32.14c1.11,0,2.12-.22,3.03-.69l-.78-1.53c-.63.33-1.38.5-2.25.5v1.72ZM85.08,31.44c.88-.47,1.61-1.09,2.2-1.87l-1.37-1.04c-.44.57-.99,1.04-1.65,1.4l.82,1.51ZM87.29,29.57c.57-.77,1-1.62,1.29-2.54l-1.64-.51c-.23.74-.57,1.41-1.03,2.03l1.38,1.03ZM88.57,27.04c.3-.93.46-1.87.46-2.82h-1.72c0,.76-.12,1.52-.37,2.29l1.64.53ZM89.03,24.22c0-1.01-.16-1.97-.5-2.9l-1.62.58c.26.74.4,1.51.4,2.32h1.72ZM88.54,21.34c-.31-.95-.76-1.79-1.37-2.53l-1.33,1.09c.46.57.82,1.22,1.06,1.98l1.64-.53ZM87.19,18.83c-.6-.78-1.35-1.39-2.24-1.82l-.75,1.55c.65.32,1.19.76,1.62,1.32l1.37-1.04ZM84.98,17.02c-.89-.47-1.88-.69-2.95-.69v1.72c.83,0,1.54.17,2.15.49l.8-1.52ZM82.03,16.32c-1.13,0-2.16.23-3.08.73l.82,1.51c.63-.34,1.38-.52,2.26-.52v-1.72ZM78.96,17.05c-.86.45-1.59,1.07-2.18,1.84l1.37,1.04c.44-.57.98-1.03,1.62-1.36l-.8-1.52ZM76.77,18.89c-.57.75-1.01,1.59-1.32,2.51l1.63.54c.25-.74.6-1.41,1.05-2.01l-1.37-1.04ZM75.45,21.41c-.28.91-.42,1.85-.42,2.81h1.72c0-.78.12-1.55.35-2.3l-1.64-.51ZM95.44,34.75h-.86v.86h.86v-.86ZM95.44,13.68v-.86h-.86v.86h.86ZM99.53,13.68h.86v-.86h-.86v.86ZM99.53,31.16h-.86v.86h.86v-.86ZM110.28,31.16h.86v-.86h-.86v.86ZM110.28,34.75v.86h.86v-.86h-.86ZM96.3,34.75V13.68h-1.72v21.07h1.72ZM95.44,14.54h4.1v-1.72h-4.1v1.72ZM98.68,13.68v17.48h1.72V13.68h-1.72ZM99.53,32.02h10.74v-1.72h-10.74v1.72ZM109.42,31.16v3.59h1.72v-3.59h-1.72ZM110.28,33.89h-14.84v1.72h14.84v-1.72ZM125.33,19.2l-.61.61.81.81.55-1.01-.76-.41ZM124.55,18.64l-.48.72h0s0,.01,0,.01l.46-.73ZM123.22,17.96l-.34.79h0s0,0,0,0l.32-.8ZM121.53,17.39l-.24.83h.01s.01,0,.01,0l.21-.83ZM117.13,17.75l-.5-.7h0s0,0,0,0l.52.69ZM118.44,21.72l-.27.82.27-.82ZM121.11,22.5l-.22.83h0s0,0,0,0l.2-.84ZM124.7,23.74l-.38.77h0s0,0,0,0l.36-.78ZM127.05,25.64l-.71.48h0s0,.02,0,.02l.7-.5ZM127.25,31.64l.76.4h0s0,0,0,0l-.77-.39ZM123.04,34.67l.2.84h0s0,0,0,0l-.21-.83ZM113.9,33.74l-.34.79h0s0,0,0,0l.33-.8ZM111.23,32.26l-.77-.39-.34.66.61.43.5-.7ZM113.04,28.73l.61-.61-.83-.83-.54,1.05.77.39ZM113.99,29.44l-.47.72h.01s.01.01.01.01l.45-.73ZM115.65,30.3l-.36.78h0s.01,0,.01,0l.34-.79ZM117.79,31.01l-.21.83.21-.83ZM122.65,30.75l-.47-.72.47.72ZM120.93,26.74l-.28.81h0s0,0,0,0l.26-.82ZM118.05,25.85l.24-.83h0s-.23.83-.23.83ZM114.73,24.6l-.4.76h0s0,0,0,0l.39-.77ZM112.74,22.82l-.73.45.73-.45ZM113.1,16.53l-.7-.49h0s.71.49.71.49ZM115.89,14.31l.34.79h0s0,0,0,0l-.35-.79ZM122.57,13.86l-.21.83h0s.2-.83.2-.83ZM125.06,14.72l.36-.78h0l-.36.78ZM127.14,15.88l.76.41.37-.69-.65-.44-.48.71ZM125.93,18.59c-.21-.21-.54-.44-.92-.68l-.92,1.45c.37.24.56.38.62.44l1.22-1.22ZM125.03,17.92c-.42-.28-.92-.53-1.49-.76l-.65,1.59c.5.2.89.41,1.18.6l.95-1.43ZM123.55,17.16c-.56-.24-1.16-.44-1.81-.6l-.43,1.67c.58.15,1.1.32,1.57.52l.67-1.58ZM121.77,16.57c-.69-.2-1.39-.3-2.11-.3v1.72c.55,0,1.09.08,1.63.23l.48-1.65ZM119.66,16.26c-1.19,0-2.24.22-3.03.79l1.01,1.39c.37-.26,1-.46,2.02-.46v-1.72ZM116.62,17.06c-.79.59-1.18,1.44-1.18,2.44h1.72c0-.51.17-.83.49-1.06l-1.03-1.38ZM115.44,19.5c0,.77.25,1.46.8,1.99l1.18-1.25c-.15-.15-.26-.36-.26-.74h-1.72ZM116.25,21.49c.48.46,1.15.79,1.92,1.05l.54-1.63c-.65-.22-1.05-.45-1.28-.67l-1.18,1.25ZM118.17,22.54c.74.25,1.65.51,2.73.79l.43-1.66c-1.06-.27-1.93-.53-2.62-.76l-.54,1.63ZM120.91,23.33c1.34.33,2.48.72,3.42,1.18l.76-1.54c-1.08-.53-2.34-.96-3.77-1.31l-.41,1.67ZM124.34,24.52c.91.42,1.56.96,1.99,1.6l1.43-.96c-.64-.94-1.55-1.67-2.7-2.2l-.72,1.56ZM126.35,26.14c.42.58.67,1.42.67,2.59h1.72c0-1.4-.3-2.63-.99-3.59l-1.4,1ZM127.02,28.73c0,1.02-.19,1.85-.53,2.52l1.53.78c.49-.96.72-2.07.72-3.3h-1.72ZM126.49,31.24c-.35.67-.83,1.2-1.44,1.62l.96,1.43c.85-.57,1.52-1.33,2-2.24l-1.52-.8ZM125.05,32.85c-.64.43-1.38.76-2.22.98l.43,1.67c1.02-.26,1.94-.66,2.76-1.22l-.96-1.43ZM122.84,33.83c-.86.2-1.78.3-2.77.3v1.72c1.11,0,2.16-.12,3.16-.35l-.39-1.67ZM120.07,34.13c-.99,0-1.98-.1-2.97-.31l-.35,1.68c1.11.23,2.21.34,3.32.34v-1.72ZM117.1,33.82c-1-.21-1.96-.5-2.88-.87l-.65,1.59c1.02.42,2.08.74,3.18.97l.35-1.68ZM114.24,32.95c-.92-.39-1.75-.86-2.51-1.4l-.99,1.4c.86.61,1.81,1.13,2.83,1.57l.68-1.58ZM111.99,32.65l1.81-3.53-1.53-.78-1.81,3.53,1.53.78ZM112.43,29.34c.25.25.63.52,1.09.82l.94-1.44c-.45-.29-.7-.49-.81-.6l-1.22,1.22ZM113.54,30.18c.49.3,1.08.6,1.75.91l.71-1.57c-.63-.29-1.15-.56-1.57-.81l-.89,1.47ZM115.31,31.09c.7.3,1.45.55,2.26.75l.43-1.67c-.74-.19-1.41-.41-2.01-.67l-.67,1.58ZM117.57,31.85c.84.22,1.69.32,2.56.32v-1.72c-.72,0-1.43-.09-2.13-.27l-.43,1.67ZM120.13,32.17c1.18,0,2.22-.2,2.99-.7l-.94-1.44c-.37.24-1.02.42-2.05.42v1.72ZM123.13,31.47c.82-.54,1.25-1.34,1.25-2.32h-1.72c0,.41-.14.67-.47.88l.94,1.44ZM124.37,29.14c0-.87-.33-1.62-1.01-2.16l-1.06,1.35c.22.18.35.41.35.81h1.72ZM123.36,26.98c-.56-.44-1.3-.79-2.17-1.06l-.52,1.64c.76.24,1.28.51,1.63.78l1.06-1.35ZM121.21,25.93c-.83-.28-1.8-.58-2.92-.9l-.47,1.65c1.1.31,2.04.61,2.84.88l.56-1.63ZM118.29,25.02c-1.29-.37-2.34-.76-3.17-1.19l-.78,1.53c.96.49,2.12.92,3.48,1.31l.47-1.65ZM115.13,23.85c-.78-.42-1.32-.91-1.66-1.47l-1.47.9c.53.87,1.32,1.56,2.32,2.09l.81-1.52ZM113.48,22.37c-.33-.54-.53-1.27-.53-2.22h-1.72c0,1.18.24,2.24.78,3.12l1.47-.9ZM112.95,20.15c0-1.31.3-2.33.86-3.13l-1.41-.98c-.79,1.14-1.16,2.53-1.16,4.11h1.72ZM113.8,17.02c.6-.85,1.39-1.49,2.42-1.93l-.67-1.58c-1.31.55-2.37,1.4-3.16,2.52l1.41.99ZM116.23,15.09c1.05-.46,2.22-.7,3.54-.7v-1.72c-1.53,0-2.95.28-4.23.84l.69,1.57ZM119.78,14.39c.93,0,1.79.1,2.58.3l.42-1.67c-.95-.24-1.95-.35-3-.35v1.72ZM122.36,14.7c.84.21,1.62.48,2.34.81l.72-1.56c-.83-.38-1.71-.69-2.65-.92l-.41,1.67ZM124.7,15.5c.74.34,1.39.7,1.96,1.09l.96-1.42c-.66-.44-1.39-.85-2.2-1.23l-.72,1.56ZM126.38,15.47l-1.81,3.32,1.51.82,1.81-3.32-1.51-.82Z" style="fill:rgba(255,255,255,.12);"/></svg>